<?xml version="1.0" standalone="no"?>
<svg xmlns="http://www.w3.org/2000/svg" viewBox="0 0 97.453125 23.2734375" width="97.453125" height="23.2734375"><path fill="#ffffff" fill-rule="nonzero" d="M12.02 17.71L0 17.71L0 17.18L1.80 17.06L1.80 1.63L0 1.51L0 0.98L11.54 0.98L11.66 5.75L11.17 5.75Q11.03 4.96 10.87 4.40Q10.71 3.84 10.42 3.28Q10.13 2.72 9.73 2.38Q9.34 2.05 8.72 1.84Q8.11 1.63 7.30 1.63L7.30 1.63Q6.30 1.63 4.80 1.75L4.80 1.75L4.80 8.71Q5.16 8.74 6.08 8.74L6.08 8.74Q7.31 8.74 7.84 8.14Q8.37 7.54 8.37 5.94L8.37 5.94L9.01 5.94L9.01 12.23L8.37 12.23Q8.37 10.64 7.83 10.01Q7.30 9.39 6.08 9.39L6.08 9.39Q5.18 9.39 4.80 9.42L4.80 9.42L4.80 16.95Q6.30 17.06 7.78 17.06L7.78 17.06Q8.47 17.06 9 16.95Q9.53 16.84 9.91 16.58Q10.30 16.32 10.57 16.00Q10.84 15.68 11.04 15.18Q11.25 14.67 11.38 14.17Q11.51 13.66 11.65 12.93L11.65 12.93L12.15 12.93L12.02 17.71ZM15.25 1.91L13.80 1.91L13.80 1.43L16.25 1.17L17.91 0.74L18.12 1.08L18.12 17.11L19.32 17.23L19.32 17.71L14.04 17.71L14.04 17.23L15.25 17.11L15.25 1.91ZM38.33 17.71L26.31 17.71L26.31 17.18L28.11 17.06L28.11 1.63L26.31 1.51L26.31 0.98L37.85 0.98L37.97 5.75L37.48 5.75Q37.34 4.96 37.18 4.40Q37.02 3.84 36.73 3.28Q36.43 2.72 36.04 2.38Q35.65 2.05 35.03 1.84Q34.42 1.63 33.61 1.63L33.61 1.63Q32.61 1.63 31.11 1.75L31.11 1.75L31.11 8.71Q31.46 8.74 32.39 8.74L32.39 8.74Q33.62 8.74 34.15 8.14Q34.68 7.54 34.68 5.94L34.68 5.94L35.32 5.94L35.32 12.23L34.68 12.23Q34.68 10.64 34.14 10.01Q33.61 9.39 32.39 9.39L32.39 9.39Q31.49 9.39 31.11 9.42L31.11 9.42L31.11 16.95Q32.61 17.06 34.09 17.06L34.09 17.06Q34.78 17.06 35.31 16.95Q35.84 16.84 36.22 16.58Q36.61 16.32 36.88 16.00Q37.15 15.68 37.35 15.18Q37.56 14.67 37.69 14.17Q37.82 13.66 37.96 12.93L37.96 12.93L38.46 12.93L38.33 17.71ZM40.62 12.07L40.62 12.07Q40.62 10.77 40.92 9.62Q41.23 8.46 41.80 7.55Q42.38 6.64 43.30 6.12Q44.23 5.59 45.40 5.59L45.40 5.59Q46.05 5.59 46.75 5.89Q47.45 6.20 47.92 6.87L47.92 6.87L50.32 5.94L50.80 5.94L50.80 22.68L52.00 22.79L52.00 23.27L46.72 23.27L46.72 22.79L47.92 22.68L47.92 16.04L47.87 16.04Q47.20 17.18 46.45 17.62Q45.70 18.06 44.68 18.06L44.68 18.06Q44.40 18.06 44.10 18.01Q43.80 17.96 43.39 17.81Q42.98 17.65 42.62 17.39Q42.25 17.13 41.87 16.67Q41.50 16.21 41.23 15.60Q40.96 14.99 40.79 14.08Q40.62 13.17 40.62 12.07ZM43.62 12.19L43.62 12.19Q43.62 13.63 43.80 14.65Q43.99 15.68 44.31 16.18Q44.63 16.69 44.96 16.90Q45.30 17.11 45.69 17.11L45.69 17.11Q46.56 17.11 47.24 16.13Q47.92 15.15 47.92 13.98L47.92 13.98L47.92 8.44Q47.85 7.58 47.30 6.94Q46.76 6.29 46.02 6.29L46.02 6.29Q45.54 6.29 45.16 6.52Q44.78 6.74 44.53 7.07Q44.29 7.39 44.10 7.93Q43.92 8.46 43.83 8.94Q43.73 9.41 43.69 10.07Q43.64 10.72 43.63 11.16Q43.62 11.59 43.62 12.19ZM54.38 6.88L52.93 6.88L52.93 6.40L55.38 6.14L57.04 5.71L57.26 6.05L57.26 14.51Q57.26 15.20 57.40 15.69Q57.55 16.18 57.73 16.42Q57.91 16.66 58.19 16.80Q58.46 16.93 58.62 16.95Q58.77 16.97 58.96 16.97L58.96 16.97Q59.78 16.97 60.46 15.93Q61.15 14.89 61.15 13.38L61.15 13.38L61.15 6.88L59.71 6.88L59.71 6.40L62.16 6.14L63.81 5.71L64.02 6.05L64.02 17.11L65.23 17.23L65.23 17.71L61.55 17.71L61.20 15.90L61.15 15.90Q60.84 16.35 60.57 16.66Q60.30 16.97 59.89 17.33Q59.48 17.68 58.95 17.87Q58.42 18.06 57.81 18.06L57.81 18.06Q57.39 18.06 56.99 17.99Q56.59 17.92 56.09 17.68Q55.59 17.44 55.24 17.03Q54.88 16.63 54.63 15.90Q54.38 15.16 54.38 14.18L54.38 14.18L54.38 6.88ZM68.02 6.88L66.57 6.88L66.57 6.40L69.02 6.14L70.68 5.71L70.89 6.05L70.89 17.11L72.09 17.23L72.09 17.71L66.81 17.71L66.81 17.23L68.02 17.11L68.02 6.88ZM67.85 1.55L67.85 1.55Q67.85 1.22 67.97 0.94Q68.10 0.66 68.31 0.45Q68.52 0.23 68.80 0.12Q69.08 0 69.40 0L69.40 0Q69.71 0 70.00 0.12Q70.28 0.25 70.49 0.46Q70.71 0.67 70.83 0.95Q70.96 1.23 70.96 1.55L70.96 1.55Q70.96 1.86 70.83 2.14Q70.71 2.43 70.50 2.64Q70.29 2.86 70.01 2.98Q69.73 3.11 69.40 3.11L69.40 3.11Q69.07 3.11 68.79 2.98Q68.51 2.86 68.30 2.65Q68.09 2.44 67.97 2.16Q67.85 1.88 67.85 1.55ZM74.75 6.88L73.31 6.88L73.31 6.40L75.76 6.14L77.41 5.71L77.58 6.05L77.58 7.57L77.63 7.57Q78.29 6.43 79.03 6.01Q79.77 5.59 80.80 5.59L80.80 5.59Q81.07 5.59 81.38 5.65Q81.68 5.71 82.08 5.88Q82.49 6.05 82.86 6.32Q83.24 6.59 83.61 7.07Q83.98 7.55 84.25 8.16Q84.52 8.78 84.69 9.69Q84.86 10.61 84.86 11.71L84.86 11.71Q84.86 13.03 84.53 14.16Q84.20 15.29 83.57 16.17Q82.93 17.05 81.90 17.55Q80.87 18.06 79.55 18.06L79.55 18.06Q78.39 18.06 77.63 17.46L77.63 17.46L77.63 22.68L78.83 22.79L78.83 23.27L73.55 23.27L73.55 22.79L74.75 22.68L74.75 6.88ZM77.63 9.64L77.63 16.84Q78.29 17.44 79.07 17.44L79.07 17.44Q79.63 17.44 80.07 17.21Q80.51 16.99 80.79 16.66Q81.08 16.34 81.29 15.80Q81.50 15.27 81.61 14.79Q81.71 14.32 81.77 13.66Q81.83 13.01 81.84 12.57Q81.86 12.14 81.86 11.54L81.86 11.54Q81.86 9.64 81.59 8.50Q81.32 7.36 80.88 6.94Q80.45 6.53 79.79 6.53L79.79 6.53Q78.88 6.53 78.25 7.49Q77.63 8.45 77.63 9.64L77.63 9.64ZM86.77 11.89L86.77 11.89Q86.77 10.13 87.45 8.68Q88.14 7.24 89.37 6.42Q90.61 5.59 92.17 5.59L92.17 5.59Q93.46 5.59 94.49 6.12Q95.53 6.66 96.16 7.55Q96.79 8.44 97.12 9.53Q97.45 10.63 97.45 11.82L97.45 11.82Q97.45 13.55 96.80 14.96Q96.14 16.38 94.92 17.22Q93.69 18.06 92.14 18.06L92.14 18.06Q90.77 18.06 89.72 17.57Q88.68 17.09 88.04 16.22Q87.40 15.36 87.08 14.27Q86.77 13.18 86.77 11.89ZM89.77 11.75L89.77 11.75Q89.77 13.05 89.89 14.08Q90.02 15.11 90.29 15.90Q90.56 16.69 91.02 17.11Q91.48 17.53 92.10 17.53L92.10 17.53Q94.45 17.53 94.45 11.89L94.45 11.89Q94.45 10.48 94.34 9.46Q94.23 8.44 93.97 7.66Q93.70 6.88 93.23 6.50Q92.77 6.12 92.10 6.12L92.10 6.12Q91.48 6.12 91.02 6.54Q90.56 6.96 90.29 7.73Q90.02 8.51 89.89 9.50Q89.77 10.50 89.77 11.75Z"></path></svg>