<?xml version="1.0" standalone="no"?>
<svg xmlns="http://www.w3.org/2000/svg" viewBox="0 0 91.3359375 17.54296875" width="91.3359375" height="17.54296875"><path fill="#ffffff" fill-rule="nonzero" d="M0 9.07L0 9.07Q0 7.77 0.28 6.50Q0.56 5.24 1.18 4.05Q1.79 2.87 2.68 1.97Q3.57 1.08 4.89 0.54Q6.20 0 7.77 0L7.77 0Q9.60 0 10.99 1.00Q12.39 2.00 12.39 3.38L12.39 3.38Q12.39 4.07 11.95 4.56Q11.51 5.05 10.75 5.05L10.75 5.05Q10.02 5.05 9.56 4.60Q9.11 4.15 9.11 3.46L9.11 3.46Q9.11 2.78 9.54 2.31Q9.97 1.85 10.62 1.85L10.62 1.85Q10.75 1.85 10.80 1.86L10.80 1.86L10.80 1.82Q10.63 1.49 9.86 1.08Q9.08 0.67 7.99 0.67L7.99 0.67Q5.86 0.67 4.49 2.88Q3.12 5.10 3.12 8.73L3.12 8.73Q3.12 10.29 3.39 11.68Q3.66 13.07 4.19 14.20Q4.72 15.34 5.63 16.01Q6.53 16.69 7.69 16.69L7.69 16.69Q9.35 16.69 10.59 15.70Q11.82 14.71 12.50 13.16L12.50 13.16L13.05 13.42Q11.38 17.54 7.42 17.54L7.42 17.54Q5.70 17.54 4.37 17.06Q3.05 16.58 2.23 15.79Q1.42 15 0.90 13.88Q0.39 12.75 0.19 11.59Q0 10.43 0 9.07ZM14.33 11.32L14.33 11.32Q14.33 9.55 15.02 8.11Q15.70 6.67 16.94 5.84Q18.18 5.02 19.73 5.02L19.73 5.02Q21.02 5.02 22.06 5.55Q23.10 6.08 23.72 6.97Q24.35 7.86 24.69 8.96Q25.02 10.05 25.02 11.25L25.02 11.25Q25.02 12.97 24.36 14.39Q23.71 15.81 22.48 16.65Q21.26 17.48 19.71 17.48L19.71 17.48Q18.34 17.48 17.29 17.00Q16.24 16.51 15.60 15.65Q14.96 14.79 14.65 13.70Q14.33 12.61 14.33 11.32ZM17.33 11.18L17.33 11.18Q17.33 12.48 17.46 13.51Q17.59 14.53 17.86 15.32Q18.13 16.11 18.59 16.54Q19.04 16.96 19.66 16.96L19.66 16.96Q22.02 16.96 22.02 11.32L22.02 11.32Q22.02 9.90 21.91 8.88Q21.80 7.86 21.53 7.08Q21.27 6.30 20.80 5.92Q20.33 5.54 19.66 5.54L19.66 5.54Q19.04 5.54 18.59 5.96Q18.13 6.39 17.86 7.16Q17.59 7.93 17.46 8.93Q17.33 9.93 17.33 11.18ZM26.63 6.30L26.60 5.82L29.05 5.57L30.70 5.13L30.91 5.47L30.87 7.05L30.91 7.05Q32.31 5.02 34.52 5.02L34.52 5.02Q34.95 5.02 35.33 5.09Q35.72 5.16 36.19 5.40Q36.66 5.65 37.00 6.05Q37.34 6.45 37.57 7.18Q37.80 7.92 37.80 8.91L37.80 8.91L37.80 16.54L39 16.65L39 17.13L33.73 17.13L33.73 16.65L34.92 16.54L34.92 8.57Q34.92 6.07 33.32 6.07L33.32 6.07Q32.26 6.07 31.59 7.03Q30.91 7.99 30.91 9.55L30.91 9.55L30.91 16.54L32.12 16.65L32.12 17.13L26.84 17.13L26.84 16.65L28.04 16.54L28.04 6.28L26.63 6.30ZM41.64 5.98L39.64 5.87L39.64 5.37L41.64 5.37L41.64 2.78L42.64 2.67L44.30 2.24L44.52 2.58L44.52 5.37L47.09 5.37L47.09 5.87L44.52 5.98L44.52 14.23Q44.52 14.94 44.69 15.42Q44.86 15.89 45.13 16.07Q45.41 16.24 45.58 16.29Q45.75 16.34 45.94 16.34L45.94 16.34Q46.30 16.34 46.63 16.18Q46.97 16.02 47.24 15.71Q47.52 15.41 47.70 15.16Q47.87 14.91 48.09 14.54L48.09 14.54L48.60 14.85Q47.98 15.88 47.52 16.35L47.52 16.35Q46.41 17.48 44.95 17.48L44.95 17.48Q44.40 17.48 43.97 17.41Q43.55 17.33 43.09 17.09Q42.63 16.84 42.33 16.42Q42.02 16.01 41.83 15.28Q41.64 14.54 41.64 13.56L41.64 13.56L41.64 5.98ZM49.25 14.59L49.25 14.59Q49.25 14.02 49.44 13.48Q49.62 12.95 50.03 12.46Q50.44 11.96 51.04 11.60Q51.63 11.24 52.52 11.02Q53.40 10.80 54.48 10.80L54.48 10.80Q55.05 10.80 55.57 10.85L55.57 10.85L55.57 9.23Q55.57 8.46 55.54 7.98Q55.51 7.50 55.39 6.99Q55.28 6.48 55.06 6.21Q54.84 5.93 54.45 5.75Q54.06 5.57 53.50 5.57L53.50 5.57Q51.79 5.57 51 6.91L51 6.91L51 6.96Q51.20 6.93 51.36 6.93L51.36 6.93Q51.97 6.93 52.32 7.30Q52.68 7.68 52.68 8.38L52.68 8.38Q52.68 8.99 52.25 9.40Q51.83 9.82 51.20 9.82L51.20 9.82Q50.51 9.82 50.11 9.35Q49.71 8.88 49.71 8.25L49.71 8.25Q49.71 6.87 50.98 5.94Q52.25 5.02 53.91 5.02L53.91 5.02Q55.08 5.02 55.90 5.26Q56.73 5.51 57.22 5.91Q57.71 6.32 57.99 7.01Q58.27 7.71 58.35 8.44Q58.44 9.16 58.44 10.22L58.44 10.22L58.44 16.54L59.65 16.65L59.65 17.13L55.92 17.13L55.59 15.28L55.57 15.28Q55.00 16.39 54.18 16.94Q53.37 17.48 52.21 17.48L52.21 17.48Q50.78 17.48 50.02 16.63Q49.25 15.77 49.25 14.59ZM52.09 14.34L52.09 14.34Q52.09 15.28 52.44 15.86Q52.79 16.44 53.47 16.44L53.47 16.44Q54.27 16.44 54.92 15.45Q55.57 14.45 55.57 13.01L55.57 13.01L55.57 11.39Q55.10 11.33 54.81 11.33L54.81 11.33Q54.20 11.33 53.72 11.50Q53.25 11.66 52.97 11.94Q52.69 12.22 52.50 12.53Q52.31 12.84 52.23 13.22Q52.15 13.59 52.12 13.84Q52.09 14.09 52.09 14.34ZM61.14 11.32L61.14 11.32Q61.14 10.45 61.34 9.59Q61.54 8.72 61.97 7.89Q62.41 7.07 63.04 6.43Q63.67 5.79 64.59 5.40Q65.52 5.02 66.61 5.02L66.61 5.02Q68.24 5.02 69.31 5.93Q70.38 6.84 70.38 8.11L70.38 8.11Q70.38 8.74 69.98 9.18Q69.59 9.62 68.89 9.62L68.89 9.62Q68.25 9.62 67.84 9.21Q67.43 8.80 67.43 8.18L67.43 8.18Q67.43 7.59 67.81 7.17Q68.19 6.75 68.79 6.75L68.79 6.75Q68.87 6.75 69.08 6.77L69.08 6.77L69.08 6.71Q68.94 6.48 68.75 6.28Q68.55 6.07 68.09 5.84Q67.62 5.60 67.04 5.60L67.04 5.60Q66.01 5.60 65.34 6.38Q64.68 7.15 64.41 8.37Q64.14 9.60 64.14 11.27L64.14 11.27Q64.14 16.68 67.02 16.68L67.02 16.68Q67.39 16.68 67.72 16.61Q68.04 16.55 68.48 16.36Q68.92 16.17 69.35 15.73Q69.79 15.28 70.18 14.60L70.18 14.60L70.64 14.87Q69.20 17.48 66.52 17.48L66.52 17.48Q61.14 17.48 61.14 11.32ZM73.32 5.98L71.33 5.87L71.33 5.37L73.32 5.37L73.32 2.78L74.33 2.67L75.98 2.24L76.21 2.58L76.21 5.37L78.77 5.37L78.77 5.87L76.21 5.98L76.21 14.23Q76.21 14.94 76.38 15.42Q76.55 15.89 76.82 16.07Q77.10 16.24 77.27 16.29Q77.44 16.34 77.63 16.34L77.63 16.34Q77.99 16.34 78.32 16.18Q78.66 16.02 78.93 15.71Q79.21 15.41 79.38 15.16Q79.56 14.91 79.78 14.54L79.78 14.54L80.29 14.85Q79.66 15.88 79.21 16.35L79.21 16.35Q78.09 17.48 76.64 17.48L76.64 17.48Q76.09 17.48 75.66 17.41Q75.23 17.33 74.78 17.09Q74.32 16.84 74.02 16.42Q73.71 16.01 73.52 15.28Q73.32 14.54 73.32 13.56L73.32 13.56L73.32 5.98ZM80.94 14.59L80.94 14.59Q80.94 14.02 81.12 13.48Q81.30 12.95 81.71 12.46Q82.13 11.96 82.72 11.60Q83.32 11.24 84.21 11.02Q85.09 10.80 86.17 10.80L86.17 10.80Q86.74 10.80 87.26 10.85L87.26 10.85L87.26 9.23Q87.26 8.46 87.23 7.98Q87.20 7.50 87.08 6.99Q86.96 6.48 86.75 6.21Q86.53 5.93 86.14 5.75Q85.75 5.57 85.18 5.57L85.18 5.57Q83.47 5.57 82.69 6.91L82.69 6.91L82.69 6.96Q82.89 6.93 83.05 6.93L83.05 6.93Q83.66 6.93 84.01 7.30Q84.36 7.68 84.36 8.38L84.36 8.38Q84.36 8.99 83.94 9.40Q83.52 9.82 82.89 9.82L82.89 9.82Q82.20 9.82 81.80 9.35Q81.40 8.88 81.40 8.25L81.40 8.25Q81.40 6.87 82.67 5.94Q83.94 5.02 85.59 5.02L85.59 5.02Q86.77 5.02 87.59 5.26Q88.42 5.51 88.91 5.91Q89.40 6.32 89.68 7.01Q89.95 7.71 90.04 8.44Q90.13 9.16 90.13 10.22L90.13 10.22L90.13 16.54L91.34 16.65L91.34 17.13L87.61 17.13L87.28 15.28L87.26 15.28Q86.68 16.39 85.87 16.94Q85.05 17.48 83.89 17.48L83.89 17.48Q82.46 17.48 81.70 16.63Q80.94 15.77 80.94 14.59ZM83.78 14.34L83.78 14.34Q83.78 15.28 84.13 15.86Q84.48 16.44 85.16 16.44L85.16 16.44Q85.96 16.44 86.61 15.45Q87.26 14.45 87.26 13.01L87.26 13.01L87.26 11.39Q86.79 11.33 86.50 11.33L86.50 11.33Q85.89 11.33 85.41 11.50Q84.94 11.66 84.66 11.94Q84.38 12.22 84.19 12.53Q84 12.84 83.92 13.22Q83.84 13.59 83.81 13.84Q83.78 14.09 83.78 14.34Z"></path></svg>