<?xml version="1.0" standalone="no"?>
<svg xmlns="http://www.w3.org/2000/svg" viewBox="0 0 59.765625 22.5234375" width="59.765625" height="22.5234375"><path fill="#ffffff" fill-rule="nonzero" d="M12.27 16.72L0 16.72L0 16.20L1.80 16.08L1.80 0.64L0 0.53L0 0L6.61 0L6.61 0.53L4.80 0.64L4.80 15.96Q6.71 16.09 7.42 16.09L7.42 16.09Q8.06 16.09 8.55 16.05Q9.04 16.02 9.44 15.90Q9.84 15.79 10.12 15.66Q10.39 15.53 10.64 15.25Q10.89 14.98 11.04 14.71Q11.19 14.45 11.44 13.68Q11.68 12.91 11.87 11.94L11.87 11.94L12.27 11.94L12.27 16.72ZM13.75 10.91L13.75 10.91Q13.75 9.14 14.43 7.70Q15.12 6.26 16.35 5.43Q17.59 4.61 19.15 4.61L19.15 4.61Q20.44 4.61 21.47 5.14Q22.51 5.67 23.14 6.56Q23.77 7.45 24.10 8.55Q24.43 9.64 24.43 10.84L24.43 10.84Q24.43 12.56 23.78 13.98Q23.12 15.40 21.90 16.24Q20.67 17.07 19.13 17.07L19.13 17.07Q17.75 17.07 16.71 16.59Q15.66 16.10 15.02 15.24Q14.38 14.38 14.06 13.29Q13.75 12.20 13.75 10.91ZM16.75 10.77L16.75 10.77Q16.75 12.07 16.88 13.10Q17.00 14.12 17.27 14.91Q17.54 15.70 18 16.13Q18.46 16.55 19.08 16.55L19.08 16.55Q21.43 16.55 21.43 10.91L21.43 10.91Q21.43 9.49 21.32 8.47Q21.21 7.45 20.95 6.67Q20.68 5.89 20.21 5.51Q19.75 5.13 19.08 5.13L19.08 5.13Q18.46 5.13 18 5.55Q17.54 5.98 17.27 6.75Q17.00 7.52 16.88 8.52Q16.75 9.52 16.75 10.77ZM26.13 19.72L26.13 19.72Q26.13 19.08 26.43 18.57Q26.73 18.07 27.18 17.81Q27.62 17.54 28.03 17.41Q28.43 17.27 28.75 17.27L28.75 17.27L28.75 17.25Q26.57 16.59 26.57 14.89L26.57 14.89Q26.57 13.88 27.30 13.14Q28.03 12.40 28.88 12.15L28.88 12.15L28.88 12.13Q27.81 11.64 27.26 10.73Q26.71 9.82 26.71 8.70L26.71 8.70Q26.71 6.95 28.11 5.78Q29.51 4.61 31.56 4.61L31.56 4.61Q33.50 4.61 34.79 5.63L34.79 5.63Q35.74 3.83 37.08 3.83L37.08 3.83Q37.76 3.83 38.14 4.22Q38.52 4.61 38.52 5.20L38.52 5.20Q38.52 5.73 38.21 6.09Q37.90 6.45 37.42 6.45L37.42 6.45Q36.88 6.45 36.54 6.15Q36.21 5.85 36.21 5.32L36.21 5.32Q36.21 4.96 36.34 4.75L36.34 4.75L36.34 4.70Q36.04 4.76 35.74 5.13Q35.44 5.50 35.23 6.02L35.23 6.02Q36.29 7.16 36.29 8.67L36.29 8.67Q36.29 10.43 34.95 11.54Q33.60 12.66 31.54 12.66L31.54 12.66Q30.39 12.66 29.47 12.36L29.47 12.36Q28.77 12.61 28.37 12.98Q27.97 13.35 27.97 13.75L27.97 13.75Q27.97 14.82 31.86 14.82L31.86 14.82Q33.47 14.82 34.49 14.99Q35.51 15.16 36.16 15.58Q36.82 16.00 37.08 16.66Q37.35 17.33 37.35 18.38L37.35 18.38Q37.35 18.94 37.17 19.50Q36.98 20.06 36.56 20.61Q36.13 21.16 35.50 21.59Q34.86 22.01 33.88 22.27Q32.91 22.52 31.70 22.52L31.70 22.52Q30.97 22.52 30.29 22.46Q29.60 22.41 28.82 22.22Q28.03 22.03 27.46 21.74Q26.89 21.45 26.51 20.92Q26.13 20.40 26.13 19.72ZM28.22 19.36L28.22 19.36Q28.22 20.09 28.56 20.61Q28.91 21.13 29.50 21.40Q30.09 21.67 30.74 21.79Q31.38 21.91 32.13 21.91L32.13 21.91Q33.94 21.91 34.99 21.21Q36.05 20.51 36.05 19.38L36.05 19.38Q36.05 18.66 35.64 18.25Q35.23 17.84 34.46 17.70Q33.69 17.57 32.91 17.54L32.91 17.54L31.03 17.51Q29.94 17.48 29.23 17.37L29.23 17.37L29.21 17.38Q28.22 18.09 28.22 19.36ZM29.59 8.63L29.59 8.63Q29.59 10.32 30.08 11.23Q30.56 12.13 31.51 12.13L31.51 12.13Q33.41 12.13 33.41 8.70L33.41 8.70Q33.41 6.84 32.98 5.99Q32.54 5.13 31.56 5.13L31.56 5.13Q30.61 5.13 30.10 6.05Q29.59 6.96 29.59 8.63ZM45.86 16.72L39.25 16.72L39.25 16.20L41.05 16.08L41.05 0.64L39.25 0.53L39.25 0L45.86 0L45.86 0.53L44.05 0.64L44.05 16.08L45.86 16.20L45.86 16.72ZM47.39 5.89L47.37 5.41L49.82 5.16L51.47 4.72L51.68 5.06L51.63 6.64L51.68 6.64Q53.07 4.61 55.29 4.61L55.29 4.61Q55.71 4.61 56.10 4.68Q56.48 4.75 56.95 4.99Q57.42 5.24 57.76 5.64Q58.10 6.04 58.34 6.77Q58.57 7.51 58.57 8.50L58.57 8.50L58.57 16.13L59.77 16.24L59.77 16.72L54.49 16.72L54.49 16.24L55.69 16.13L55.69 8.16Q55.69 5.66 54.08 5.66L54.08 5.66Q53.03 5.66 52.35 6.62Q51.68 7.58 51.68 9.14L51.68 9.14L51.68 16.13L52.89 16.24L52.89 16.72L47.60 16.72L47.60 16.24L48.81 16.13L48.81 5.87L47.39 5.89Z"></path></svg>