<?xml version="1.0" standalone="no"?>
<svg xmlns="http://www.w3.org/2000/svg" viewBox="0 0 141.9375 23.5078125" width="141.9375" height="23.5078125"><path fill="#ffffff" fill-rule="nonzero" d="M12.27 17.71L0 17.71L0 17.18L1.80 17.06L1.80 1.63L0 1.51L0 0.98L6.61 0.98L6.61 1.51L4.80 1.63L4.80 16.95Q6.71 17.07 7.42 17.07L7.42 17.07Q8.06 17.07 8.55 17.04Q9.04 17.00 9.44 16.89Q9.84 16.77 10.12 16.64Q10.39 16.51 10.64 16.24Q10.89 15.96 11.04 15.70Q11.19 15.43 11.44 14.67Q11.68 13.90 11.87 12.93L11.87 12.93L12.27 12.93L12.27 17.71ZM13.75 11.89L13.75 11.89Q13.75 10.13 14.43 8.68Q15.12 7.24 16.35 6.42Q17.59 5.59 19.15 5.59L19.15 5.59Q20.44 5.59 21.47 6.12Q22.51 6.66 23.14 7.55Q23.77 8.44 24.10 9.53Q24.43 10.63 24.43 11.82L24.43 11.82Q24.43 13.55 23.78 14.96Q23.12 16.38 21.90 17.22Q20.67 18.06 19.13 18.06L19.13 18.06Q17.75 18.06 16.71 17.57Q15.66 17.09 15.02 16.22Q14.38 15.36 14.06 14.27Q13.75 13.18 13.75 11.89ZM16.75 11.75L16.75 11.75Q16.75 13.05 16.88 14.08Q17.00 15.11 17.27 15.90Q17.54 16.69 18 17.11Q18.46 17.53 19.08 17.53L19.08 17.53Q21.43 17.53 21.43 11.89L21.43 11.89Q21.43 10.48 21.32 9.46Q21.21 8.44 20.95 7.66Q20.68 6.88 20.21 6.50Q19.75 6.12 19.08 6.12L19.08 6.12Q18.46 6.12 18 6.54Q17.54 6.96 17.27 7.73Q17.00 8.51 16.88 9.50Q16.75 10.50 16.75 11.75ZM26.13 20.71L26.13 20.71Q26.13 20.06 26.43 19.56Q26.73 19.05 27.18 18.79Q27.62 18.53 28.03 18.39Q28.43 18.26 28.75 18.26L28.75 18.26L28.75 18.23Q26.57 17.58 26.57 15.88L26.57 15.88Q26.57 14.86 27.30 14.12Q28.03 13.38 28.88 13.14L28.88 13.14L28.88 13.11Q27.81 12.62 27.26 11.71Q26.71 10.80 26.71 9.68L26.71 9.68Q26.71 7.93 28.11 6.76Q29.51 5.59 31.56 5.59L31.56 5.59Q33.50 5.59 34.79 6.61L34.79 6.61Q35.74 4.82 37.08 4.82L37.08 4.82Q37.76 4.82 38.14 5.20Q38.52 5.59 38.52 6.19L38.52 6.19Q38.52 6.71 38.21 7.07Q37.90 7.43 37.42 7.43L37.42 7.43Q36.88 7.43 36.54 7.13Q36.21 6.83 36.21 6.30L36.21 6.30Q36.21 5.94 36.34 5.73L36.34 5.73L36.34 5.68Q36.04 5.74 35.74 6.11Q35.44 6.48 35.23 7.01L35.23 7.01Q36.29 8.14 36.29 9.66L36.29 9.66Q36.29 11.41 34.95 12.53Q33.60 13.64 31.54 13.64L31.54 13.64Q30.39 13.64 29.47 13.35L29.47 13.35Q28.77 13.59 28.37 13.96Q27.97 14.33 27.97 14.73L27.97 14.73Q27.97 15.81 31.86 15.81L31.86 15.81Q33.47 15.81 34.49 15.98Q35.51 16.15 36.16 16.56Q36.82 16.98 37.08 17.65Q37.35 18.32 37.35 19.36L37.35 19.36Q37.35 19.92 37.17 20.48Q36.98 21.05 36.56 21.60Q36.13 22.15 35.50 22.57Q34.86 22.99 33.88 23.25Q32.91 23.51 31.70 23.51L31.70 23.51Q30.97 23.51 30.29 23.45Q29.60 23.39 28.82 23.20Q28.03 23.02 27.46 22.72Q26.89 22.43 26.51 21.91Q26.13 21.39 26.13 20.71ZM28.22 20.34L28.22 20.34Q28.22 21.07 28.56 21.59Q28.91 22.11 29.50 22.38Q30.09 22.65 30.74 22.78Q31.38 22.90 32.13 22.90L32.13 22.90Q33.94 22.90 34.99 22.20Q36.05 21.49 36.05 20.37L36.05 20.37Q36.05 19.64 35.64 19.23Q35.23 18.82 34.46 18.69Q33.69 18.55 32.91 18.53L32.91 18.53L31.03 18.49Q29.94 18.47 29.23 18.35L29.23 18.35L29.21 18.36Q28.22 19.08 28.22 20.34ZM29.59 9.61L29.59 9.61Q29.59 11.31 30.08 12.21Q30.56 13.11 31.51 13.11L31.51 13.11Q33.41 13.11 33.41 9.68L33.41 9.68Q33.41 7.83 32.98 6.97Q32.54 6.12 31.56 6.12L31.56 6.12Q30.61 6.12 30.10 7.03Q29.59 7.95 29.59 9.61ZM40.61 6.88L39.16 6.88L39.16 6.40L41.61 6.14L43.27 5.71L43.48 6.05L43.48 17.11L44.68 17.23L44.68 17.71L39.40 17.71L39.40 17.23L40.61 17.11L40.61 6.88ZM40.44 1.55L40.44 1.55Q40.44 1.22 40.56 0.94Q40.69 0.66 40.90 0.45Q41.11 0.23 41.39 0.12Q41.67 0 41.99 0L41.99 0Q42.30 0 42.59 0.12Q42.87 0.25 43.08 0.46Q43.30 0.67 43.42 0.95Q43.55 1.23 43.55 1.55L43.55 1.55Q43.55 1.86 43.42 2.14Q43.30 2.43 43.09 2.64Q42.88 2.86 42.60 2.98Q42.32 3.11 41.99 3.11L41.99 3.11Q41.66 3.11 41.38 2.98Q41.10 2.86 40.89 2.65Q40.68 2.44 40.56 2.16Q40.44 1.88 40.44 1.55ZM46.04 6.88L46.02 6.40L48.47 6.14L50.12 5.71L50.33 6.05L50.29 7.63L50.33 7.63Q51.73 5.59 53.94 5.59L53.94 5.59Q54.36 5.59 54.75 5.66Q55.14 5.73 55.61 5.98Q56.07 6.22 56.41 6.62Q56.75 7.02 56.99 7.76Q57.22 8.50 57.22 9.48L57.22 9.48L57.22 17.11L58.42 17.23L58.42 17.71L53.14 17.71L53.14 17.23L54.34 17.11L54.34 9.14Q54.34 6.64 52.73 6.64L52.73 6.64Q51.68 6.64 51.01 7.61Q50.33 8.57 50.33 10.13L50.33 10.13L50.33 17.11L51.54 17.23L51.54 17.71L46.25 17.71L46.25 17.23L47.46 17.11L47.46 6.86L46.04 6.88ZM59.29 23.51L57.86 23.51L67.71 0.57L69.15 0.57L59.29 23.51ZM75.21 1.22L75.21 1.22Q74.37 1.22 73.73 1.42Q73.09 1.62 72.66 1.98Q72.22 2.34 72.01 2.85Q71.79 3.36 71.79 3.97L71.79 3.97Q71.79 4.41 71.91 4.83Q72.02 5.25 72.41 5.69Q72.80 6.13 73.53 6.60Q74.26 7.07 75.50 7.61L75.50 7.61Q76.93 8.26 77.92 8.84Q78.91 9.41 79.54 10.05Q80.16 10.70 80.43 11.50Q80.71 12.30 80.71 13.42L80.71 13.42Q80.71 14.26 80.37 15.11Q80.03 15.95 79.34 16.62Q78.66 17.29 77.62 17.70Q76.58 18.12 75.19 18.12L75.19 18.12Q73.64 18.12 72.59 17.83Q71.53 17.54 70.89 17.09Q70.25 16.63 69.97 16.05Q69.69 15.47 69.69 14.88L69.69 14.88Q69.69 14.50 69.81 14.16Q69.93 13.83 70.15 13.58Q70.38 13.32 70.72 13.18Q71.05 13.03 71.47 13.03L71.47 13.03Q71.86 13.03 72.18 13.17Q72.49 13.30 72.71 13.53Q72.93 13.76 73.05 14.07Q73.17 14.38 73.17 14.74L73.17 14.74Q73.17 15.57 72.69 16.00Q72.21 16.42 71.45 16.42L71.45 16.42L71.45 16.46Q71.53 16.56 71.77 16.72Q72.01 16.89 72.44 17.05Q72.87 17.21 73.49 17.34Q74.12 17.46 74.98 17.46L74.98 17.46Q75.68 17.46 76.38 17.27Q77.07 17.09 77.62 16.73Q78.16 16.38 78.50 15.88Q78.84 15.38 78.84 14.74L78.84 14.74Q78.84 14.20 78.64 13.73Q78.45 13.27 77.89 12.78Q77.34 12.29 76.37 11.74Q75.39 11.18 73.82 10.48L73.82 10.48Q72.66 9.98 71.91 9.39Q71.17 8.80 70.74 8.14Q70.31 7.48 70.15 6.76Q69.98 6.04 69.98 5.27L69.98 5.27Q69.98 4.31 70.34 3.46Q70.69 2.60 71.36 1.96Q72.02 1.32 73.00 0.95Q73.98 0.57 75.23 0.57L75.23 0.57Q76.44 0.57 77.34 0.86Q78.23 1.14 78.82 1.60Q79.41 2.06 79.70 2.68Q79.99 3.29 79.99 3.96L79.99 3.96Q79.99 4.31 79.88 4.63Q79.76 4.96 79.54 5.20Q79.31 5.44 78.98 5.58Q78.66 5.73 78.23 5.73L78.23 5.73Q77.85 5.73 77.53 5.60Q77.21 5.47 76.99 5.25Q76.76 5.03 76.63 4.72Q76.51 4.42 76.51 4.05L76.51 4.05Q76.51 3.64 76.65 3.32Q76.79 3 77.03 2.78Q77.27 2.57 77.60 2.46Q77.93 2.34 78.30 2.34L78.30 2.34L78.30 2.30Q78.23 2.21 78.02 2.03Q77.81 1.85 77.44 1.67Q77.06 1.49 76.51 1.35Q75.96 1.22 75.21 1.22ZM83.60 6.88L82.16 6.88L82.16 6.40L84.61 6.14L86.26 5.71L86.47 6.05L86.47 17.11L87.68 17.23L87.68 17.71L82.39 17.71L82.39 17.23L83.60 17.11L83.60 6.88ZM83.44 1.55L83.44 1.55Q83.44 1.22 83.56 0.94Q83.68 0.66 83.89 0.45Q84.11 0.23 84.39 0.12Q84.67 0 84.98 0L84.98 0Q85.30 0 85.58 0.12Q85.86 0.25 86.08 0.46Q86.30 0.67 86.42 0.95Q86.54 1.23 86.54 1.55L86.54 1.55Q86.54 1.86 86.42 2.14Q86.30 2.43 86.09 2.64Q85.88 2.86 85.59 2.98Q85.31 3.11 84.98 3.11L84.98 3.11Q84.66 3.11 84.38 2.98Q84.09 2.86 83.88 2.65Q83.67 2.44 83.55 2.16Q83.44 1.88 83.44 1.55ZM89.13 20.71L89.13 20.71Q89.13 20.06 89.43 19.56Q89.73 19.05 90.18 18.79Q90.62 18.53 91.03 18.39Q91.43 18.26 91.75 18.26L91.75 18.26L91.75 18.23Q89.57 17.58 89.57 15.88L89.57 15.88Q89.57 14.86 90.30 14.12Q91.03 13.38 91.88 13.14L91.88 13.14L91.88 13.11Q90.81 12.62 90.26 11.71Q89.71 10.80 89.71 9.68L89.71 9.68Q89.71 7.93 91.11 6.76Q92.51 5.59 94.56 5.59L94.56 5.59Q96.50 5.59 97.79 6.61L97.79 6.61Q98.74 4.82 100.08 4.82L100.08 4.82Q100.76 4.82 101.14 5.20Q101.52 5.59 101.52 6.19L101.52 6.19Q101.52 6.71 101.21 7.07Q100.90 7.43 100.42 7.43L100.42 7.43Q99.88 7.43 99.54 7.13Q99.21 6.83 99.21 6.30L99.21 6.30Q99.21 5.94 99.34 5.73L99.34 5.73L99.34 5.68Q99.04 5.74 98.74 6.11Q98.44 6.48 98.23 7.01L98.23 7.01Q99.29 8.14 99.29 9.66L99.29 9.66Q99.29 11.41 97.95 12.53Q96.60 13.64 94.54 13.64L94.54 13.64Q93.39 13.64 92.47 13.35L92.47 13.35Q91.77 13.59 91.37 13.96Q90.97 14.33 90.97 14.73L90.97 14.73Q90.97 15.81 94.86 15.81L94.86 15.81Q96.47 15.81 97.49 15.98Q98.51 16.15 99.16 16.56Q99.82 16.98 100.08 17.65Q100.35 18.32 100.35 19.36L100.35 19.36Q100.35 19.92 100.17 20.48Q99.98 21.05 99.56 21.60Q99.13 22.15 98.50 22.57Q97.86 22.99 96.88 23.25Q95.91 23.51 94.70 23.51L94.70 23.51Q93.97 23.51 93.29 23.45Q92.60 23.39 91.82 23.20Q91.03 23.02 90.46 22.72Q89.89 22.43 89.51 21.91Q89.13 21.39 89.13 20.71ZM91.22 20.34L91.22 20.34Q91.22 21.07 91.56 21.59Q91.91 22.11 92.50 22.38Q93.09 22.65 93.74 22.78Q94.38 22.90 95.13 22.90L95.13 22.90Q96.94 22.90 97.99 22.20Q99.05 21.49 99.05 20.37L99.05 20.37Q99.05 19.64 98.64 19.23Q98.23 18.82 97.46 18.69Q96.69 18.55 95.91 18.53L95.91 18.53L94.03 18.49Q92.94 18.47 92.23 18.35L92.23 18.35L92.21 18.36Q91.22 19.08 91.22 20.34ZM92.59 9.61L92.59 9.61Q92.59 11.31 93.08 12.21Q93.56 13.11 94.51 13.11L94.51 13.11Q96.41 13.11 96.41 9.68L96.41 9.68Q96.41 7.83 95.98 6.97Q95.54 6.12 94.56 6.12L94.56 6.12Q93.61 6.12 93.10 7.03Q92.59 7.95 92.59 9.61ZM102.18 6.88L102.15 6.40L104.60 6.14L106.25 5.71L106.46 6.05L106.42 7.63L106.46 7.63Q107.86 5.59 110.07 5.59L110.07 5.59Q110.50 5.59 110.88 5.66Q111.27 5.73 111.74 5.98Q112.21 6.22 112.55 6.62Q112.89 7.02 113.12 7.76Q113.36 8.50 113.36 9.48L113.36 9.48L113.36 17.11L114.55 17.23L114.55 17.71L109.28 17.71L109.28 17.23L110.47 17.11L110.47 9.14Q110.47 6.64 108.87 6.64L108.87 6.64Q107.81 6.64 107.14 7.61Q106.46 8.57 106.46 10.13L106.46 10.13L106.46 17.11L107.67 17.23L107.67 17.71L102.39 17.71L102.39 17.23L103.59 17.11L103.59 6.86L102.18 6.88ZM128.03 17.71L121.42 17.71L121.42 17.18L123.22 17.06L123.22 1.63L121.42 1.51L121.42 0.98L128.03 0.98L128.03 1.51L126.22 1.63L126.22 17.06L128.03 17.18L128.03 17.71ZM129.56 6.88L129.54 6.40L131.99 6.14L133.64 5.71L133.85 6.05L133.80 7.63L133.85 7.63Q135.25 5.59 137.46 5.59L137.46 5.59Q137.88 5.59 138.27 5.66Q138.66 5.73 139.13 5.98Q139.59 6.22 139.93 6.62Q140.27 7.02 140.51 7.76Q140.74 8.50 140.74 9.48L140.74 9.48L140.74 17.11L141.94 17.23L141.94 17.71L136.66 17.71L136.66 17.23L137.86 17.11L137.86 9.14Q137.86 6.64 136.25 6.64L136.25 6.64Q135.20 6.64 134.53 7.61Q133.85 8.57 133.85 10.13L133.85 10.13L133.85 17.11L135.06 17.23L135.06 17.71L129.77 17.71L129.77 17.23L130.98 17.11L130.98 6.86L129.56 6.88Z"></path></svg>