<?xml version="1.0" standalone="no"?>
<svg xmlns="http://www.w3.org/2000/svg" viewBox="0 0 301.70758335792266 99.3075833579227" width="301.70758335792266" height="99.3075833579227"><rect fill="#d2d2d2" width="301.70758335792266" height="99.3075833579227" x="0" y="0"></rect><g fill="white" color="white" transform="translate(12 12) scale(0.7530759)"><svg width="100.0" height="100.0" x="0.0" y="0.0" viewBox="0 0 100 100"><path fill="currentColor" d="M56.532,61.533c-0.046-0.031-0.348-0.878-0.348-0.878l-1.39-2.777l-8.94-14.86V41.81l13.168,17.216  l0.188,0.737l0.143,0.05c0,0,0.089,0.009,0,0C61.217,60.285,62.25,62,62.25,62l0.322,0.711l1.148-4.652  c0,0,12.804-12.686,13.922-21.384l-3.169,0.846c0,0-3.443-3.503-3.807-5.799c-0.362-2.296-1.147-10.632-4.652-12.685  c0,0-1.69-0.423-2.958,0.303c0,0-4.712-5.498-11.658-5.377l-0.725-2.96c0,0-21.626,1.692-21.444,23.317c0,0-0.478,8.635,4.536,13.83  L33.583,47.7c0,0,1.625,3.169-0.791,6.432c0,0-2.174-0.06-2.537,2.235l-2.899,5.195c0,0-0.967-0.122-1.752,1.268  c-0.785,1.391-6.584,12.868-6.584,12.868s15.887-7.793,22.532-6.584c0,0,12.261-0.594,23.982,17.554c0,0,0.903-13.689-2.236-15.32   M56.352,49.542l5.557-7.49h0.423l2.357,0.302L57.8,50.87L56.352,49.542z M60.58,52.865l-1.631-1.21l7.248-9.121h2.236L60.58,52.865  z M73.083,42.051c0,0-8.576,12.988-9.725,12.928c-1.148-0.062-1.631-1.209-1.631-1.209s9.241-10.573,8.698-11.236L73.083,42.051z   M68.287,34.378l1.15,3.153l-9.447-2.042l-1.041-3.637L68.287,34.378z M58.465,41.387l2.115,0.604l-5.437,6.846l-1.391-1.59  L58.465,41.387z"></path></svg></g><path fill="white" fill-rule="nonzero" d="M30.20 28.60Q27.32 28.60 25.72 27.72Q24.12 26.84 23.46 24.98Q22.80 23.12 22.80 20L22.80 20L22.80 4.60L12.80 26.80L12 26.80L1.60 4.20L1.60 26.80L0 26.80L0 0.40L3.80 0.40L13.40 21.20L22.80 0.40L26.40 0.40L26.40 20Q26.40 23.72 27.34 25.76Q28.28 27.80 30.20 27.80L30.20 27.80L30.20 28.60ZM34.76 26.80L34.76 5.20Q34.76 3.16 34.20 2.18Q33.64 1.20 31.96 1.20L31.96 1.20L31.16 1.20L31.16 0.40L48.20 0.40Q51.60 0.40 51.60 3.60L51.60 3.60L51.60 6.60L50.80 6.60Q50.80 2 45.80 2L45.80 2L38.36 2L38.36 12.40L49.16 12.40L49.16 14L38.36 14L38.36 25.20L45.36 25.20Q48.12 25.20 49.68 24.20Q51.24 23.20 52.16 20.80L52.16 20.80L52.96 21L51.56 24.80Q50.84 26.80 48.56 26.80L48.56 26.80L34.76 26.80ZM58.36 26.80L58.36 5.20Q58.36 3.16 57.80 2.18Q57.24 1.20 55.56 1.20L55.56 1.20L54.76 1.20L54.76 0.40L65.24 0.40Q73 0.40 76.98 3.84Q80.96 7.28 80.96 13.44L80.96 13.44Q80.96 17.40 79.28 20.42Q77.60 23.44 74.30 25.12Q71 26.80 66.28 26.80L66.28 26.80L58.36 26.80ZM66.16 25.40Q69.12 25.40 71.50 23.94Q73.88 22.48 75.24 19.82Q76.60 17.16 76.60 13.60L76.60 13.60Q76.60 10.12 75.26 7.44Q73.92 4.76 71.52 3.28Q69.12 1.80 66.08 1.80L66.08 1.80Q64.16 1.80 62.08 2.44L62.08 2.44L62.08 24.88Q64.32 25.40 66.16 25.40L66.16 25.40ZM89.88 26.80Q88.40 26.80 87.66 26.42Q86.92 26.04 86.60 25.04Q86.28 24.04 86.28 22L86.28 22L86.28 0.40L89.88 0.40L89.88 22Q89.88 24.04 90.44 25.02Q91 26 92.68 26L92.68 26L93.48 26L93.48 26.80L89.88 26.80ZM98.36 26.80L98.36 5.20Q98.36 3.16 97.80 2.18Q97.24 1.20 95.56 1.20L95.56 1.20L94.76 1.20L94.76 0.40L111.80 0.40Q115.20 0.40 115.20 3.60L115.20 3.60L115.20 6.60L114.40 6.60Q114.40 2 109.40 2L109.40 2L101.96 2L101.96 12.40L112.76 12.40L112.76 14L101.96 14L101.96 25.20L108.96 25.20Q111.72 25.20 113.28 24.20Q114.84 23.20 115.76 20.80L115.76 20.80L116.56 21L115.16 24.80Q114.44 26.80 112.16 26.80L112.16 26.80L98.36 26.80ZM130.24 27.20L120.96 5.08Q119.96 2.76 119.08 1.90Q118.20 1.04 116.56 0.88L116.56 0.88L116.56 0.08Q116.76 0.08 117.14 0.04Q117.52 0 117.92 0L117.92 0Q119.92 0 121.76 1.02Q123.60 2.04 124.88 5.08L124.88 5.08L131.72 21.20L134.08 15.72Q135.76 11.84 140.52 0.40L140.52 0.40L142.44 0.40L130.96 27.20L130.24 27.20ZM164.84 27Q162.92 27 161.04 25.94Q159.16 24.88 158.04 21.80L158.04 21.80L157.04 19.20L145.84 19.20L142.64 26.80L140.84 26.80L152.04 0.40L153.24 0.40L162.04 21.80Q163.04 24.12 163.92 24.98Q164.80 25.84 166.44 26L166.44 26L166.44 26.80Q165.72 27 164.84 27L164.84 27ZM151.44 6L146.44 17.60L156.24 17.60L151.44 6ZM169.60 26.80L169.60 5.20Q169.60 3.16 169.04 2.18Q168.48 1.20 166.80 1.20L166.80 1.20L166.00 1.20L166.00 0.40L169.60 0.40Q171.08 0.40 171.82 0.78Q172.56 1.16 172.88 2.16Q173.20 3.16 173.20 5.20L173.20 5.20L173.20 25.20L187.40 25.20L187.40 26.80L169.60 26.80Z" transform="translate(102.308 12) scale(1)"></path><path fill="white" fill-rule="nonzero" d="M12.16 27.60L4.40 5.48Q3.60 3.16 2.70 2.30Q1.80 1.44 0 1.28L0 1.28L0 0.48Q0.20 0.48 0.58 0.44Q0.96 0.40 1.36 0.40L1.36 0.40Q3.56 0.40 5.34 1.40Q7.12 2.40 8.20 5.48L8.20 5.48L13.56 20.92L17.84 8.24L16.88 5.48Q16.08 3.16 15.18 2.30Q14.28 1.44 12.48 1.28L12.48 1.28L12.48 0.48Q12.68 0.48 13.06 0.44Q13.44 0.40 13.84 0.40L13.84 0.40Q16.04 0.40 17.82 1.40Q19.60 2.40 20.68 5.48L20.68 5.48L26.04 20.92L32.88 0.80L34.60 0.80L25.44 27.60L24.64 27.60L18.72 10.76L12.96 27.60L12.16 27.60ZM49.40 28Q45.68 28 42.86 26.16Q40.04 24.32 38.52 21.12Q37.00 17.92 37.00 14.00L37.00 14.00Q37.00 10.08 38.52 6.88Q40.04 3.68 42.86 1.84Q45.68 0 49.40 0L49.40 0Q53.12 0 55.94 1.84Q58.76 3.68 60.28 6.88Q61.80 10.08 61.80 14.00L61.80 14.00Q61.80 17.92 60.28 21.12Q58.76 24.32 55.94 26.16Q53.12 28 49.40 28L49.40 28ZM49.40 26.40Q52 26.40 53.90 24.88Q55.80 23.36 56.80 20.58Q57.80 17.80 57.80 14.00L57.80 14.00Q57.80 10.20 56.80 7.42Q55.80 4.64 53.90 3.12Q52 1.60 49.40 1.60L49.40 1.60Q46.80 1.60 44.90 3.12Q43 4.64 42 7.42Q41 10.20 41 14.00L41 14.00Q41 17.80 42 20.58Q43 23.36 44.90 24.88Q46.80 26.40 49.40 26.40L49.40 26.40ZM85.20 27.60Q83.08 27.60 81.50 26.34Q79.92 25.08 78 21.80L78 21.80L74 15.00L71.20 15.00L71.20 27.20L67.60 27.20L67.60 5.60Q67.60 3.56 67.04 2.58Q66.48 1.60 64.80 1.60L64.80 1.60L64 1.60L64 0.80L74.40 0.80Q78.20 0.80 81.30 2.30Q84.40 3.80 84.40 8L84.40 8Q84.40 13.32 78 14.80L78 14.80L82.20 21.80Q83.68 24.28 84.86 25.26Q86.04 26.24 87.60 26.40L87.60 26.40L87.60 27.20Q87.24 27.36 86.58 27.48Q85.92 27.60 85.20 27.60L85.20 27.60ZM74.20 13.60Q75.44 13.60 76.90 13.00Q78.36 12.40 79.38 11.12Q80.40 9.84 80.40 8L80.40 8Q80.40 6.04 79.38 4.74Q78.36 3.44 76.90 2.82Q75.44 2.20 74.20 2.20L74.20 2.20Q72.80 2.20 71.20 2.60L71.20 2.60L71.20 13.20Q72.80 13.60 74.20 13.60L74.20 13.60ZM91.40 27.20L91.40 5.60Q91.40 3.56 90.84 2.58Q90.28 1.60 88.60 1.60L88.60 1.60L87.80 1.60L87.80 0.80L91.40 0.80Q92.88 0.80 93.62 1.18Q94.36 1.56 94.68 2.56Q95 3.56 95 5.60L95 5.60L95 25.60L109.20 25.60L109.20 27.20L91.40 27.20ZM112.96 27.20L112.96 5.60Q112.96 3.56 112.40 2.58Q111.84 1.60 110.16 1.60L110.16 1.60L109.36 1.60L109.36 0.80L119.84 0.80Q127.60 0.80 131.58 4.24Q135.56 7.68 135.56 13.84L135.56 13.84Q135.56 17.80 133.88 20.82Q132.20 23.84 128.90 25.52Q125.60 27.20 120.88 27.20L120.88 27.20L112.96 27.20ZM120.76 25.80Q123.72 25.80 126.10 24.34Q128.48 22.88 129.84 20.22Q131.20 17.56 131.20 14.00L131.20 14.00Q131.20 10.52 129.86 7.84Q128.52 5.16 126.12 3.68Q123.72 2.20 120.68 2.20L120.68 2.20Q118.76 2.20 116.68 2.84L116.68 2.84L116.68 25.28Q118.92 25.80 120.76 25.80L120.76 25.80Z" transform="translate(102.308 48.6) scale(1.383)"></path></svg>