<?xml version="1.0" standalone="no"?>
<svg xmlns="http://www.w3.org/2000/svg" viewBox="0 0 55.37109375 18.05859375" width="55.37109375" height="18.05859375"><path fill="#ffffff" fill-rule="nonzero" d="M6.61 17.71L0 17.71L0 17.18L1.80 17.06L1.80 1.63L0 1.51L0 0.98L6.36 0.98Q7.65 0.98 8.75 1.26Q9.84 1.54 10.72 2.09Q11.60 2.65 12.10 3.58Q12.60 4.51 12.60 5.73L12.60 5.73Q12.60 6.86 12.22 7.76Q11.84 8.66 11.19 9.27Q10.55 9.88 9.64 10.28Q8.73 10.69 7.72 10.87Q6.70 11.05 5.57 11.05L5.57 11.05Q5.32 11.05 4.80 11.03L4.80 11.03L4.80 17.06L6.61 17.18L6.61 17.71ZM4.80 1.79L4.80 10.36Q5.21 10.39 5.64 10.39L5.64 10.39Q9.48 10.39 9.48 5.71L9.48 5.71Q9.48 4.57 9.22 3.77Q8.96 2.96 8.48 2.53Q7.99 2.09 7.40 1.89Q6.81 1.70 6.05 1.70L6.05 1.70Q5.47 1.70 4.80 1.79L4.80 1.79ZM13.80 11.82L13.80 11.82Q13.80 10.91 13.98 10.04Q14.16 9.16 14.55 8.36Q14.95 7.55 15.53 6.94Q16.10 6.33 16.95 5.96Q17.80 5.59 18.83 5.59L18.83 5.59Q19.80 5.59 20.58 5.87Q21.35 6.14 21.87 6.63Q22.38 7.13 22.72 7.83Q23.06 8.54 23.21 9.37Q23.36 10.20 23.36 11.18L23.36 11.18L23.04 11.47L16.80 11.47L16.80 12.19Q16.80 17.30 19.71 17.30L19.71 17.30Q21.77 17.30 23.00 15.23L23.00 15.23L23.46 15.52Q21.95 18.06 19.16 18.06L19.16 18.06Q16.46 18.06 15.13 16.39Q13.80 14.73 13.80 11.82ZM16.80 10.95L16.80 10.95L20.59 10.79Q20.63 10.20 20.63 9.64L20.63 9.64Q20.63 7.95 20.22 7.03Q19.82 6.12 18.88 6.12L18.88 6.12Q18.32 6.12 17.91 6.49Q17.51 6.86 17.29 7.55Q17.06 8.24 16.95 9.05Q16.84 9.87 16.80 10.95ZM26.47 6.88L25.03 6.88L25.03 6.40L27.48 6.14L29.13 5.71L29.30 6.05L29.30 8.06L29.34 8.06Q29.58 7.59 29.92 7.15Q30.26 6.70 30.66 6.36Q31.07 6.01 31.52 5.80Q31.98 5.59 32.45 5.59L32.45 5.59Q33.36 5.59 33.86 6.08Q34.36 6.56 34.36 7.37L34.36 7.37Q34.36 7.71 34.25 8.00Q34.15 8.29 33.96 8.50Q33.76 8.71 33.49 8.83Q33.21 8.95 32.88 8.95L32.88 8.95Q32.53 8.95 32.25 8.84Q31.97 8.72 31.78 8.52Q31.58 8.32 31.48 8.06Q31.37 7.79 31.37 7.49L31.37 7.49Q31.37 6.87 31.63 6.57L31.63 6.57L31.63 6.50Q31.21 6.60 30.80 6.95Q30.40 7.30 30.07 7.90Q29.74 8.51 29.54 9.36Q29.34 10.21 29.34 11.27L29.34 11.27L29.34 17.11L30.55 17.23L30.55 17.71L25.27 17.71L25.27 17.23L26.47 17.11L26.47 6.88ZM36.68 6.56L34.96 6.45L34.96 5.94L36.68 5.94Q36.69 4.91 36.87 4.08Q37.04 3.25 37.30 2.71Q37.56 2.18 37.94 1.79Q38.32 1.39 38.66 1.20Q39 1.01 39.42 0.90Q39.84 0.79 40.10 0.76Q40.36 0.74 40.66 0.74L40.66 0.74Q41.92 0.74 42.61 1.29Q43.30 1.85 43.30 2.71L43.30 2.71Q43.30 3.28 42.93 3.69Q42.56 4.10 41.94 4.10L41.94 4.10Q41.33 4.10 40.97 3.69Q40.62 3.28 40.62 2.75L40.62 2.75Q40.62 2.43 40.75 2.09Q40.89 1.76 41.12 1.61L41.12 1.61L41.12 1.56Q41.09 1.44 40.92 1.35Q40.75 1.27 40.52 1.27L40.52 1.27Q40.20 1.27 39.99 1.44Q39.79 1.62 39.70 1.95Q39.61 2.27 39.59 2.54Q39.56 2.81 39.56 3.21L39.56 3.21L39.56 5.94L42.39 5.94L42.39 6.45L39.56 6.56L39.56 17.11L41.24 17.23L41.24 17.71L35.48 17.71L35.48 17.23L36.68 17.11L36.68 6.56ZM44.61 6.88L43.17 6.88L43.17 6.40L45.62 6.14L47.27 5.71L47.48 6.05L47.48 17.11L48.69 17.23L48.69 17.71L43.41 17.71L43.41 17.23L44.61 17.11L44.61 6.88ZM44.45 1.55L44.45 1.55Q44.45 1.22 44.57 0.94Q44.70 0.66 44.91 0.45Q45.12 0.23 45.40 0.12Q45.68 0 46.00 0L46.00 0Q46.31 0 46.59 0.12Q46.88 0.25 47.09 0.46Q47.31 0.67 47.43 0.95Q47.55 1.23 47.55 1.55L47.55 1.55Q47.55 1.86 47.43 2.14Q47.31 2.43 47.10 2.64Q46.89 2.86 46.61 2.98Q46.32 3.11 46.00 3.11L46.00 3.11Q45.67 3.11 45.39 2.98Q45.11 2.86 44.89 2.65Q44.68 2.44 44.57 2.16Q44.45 1.88 44.45 1.55ZM51.29 1.91L49.85 1.91L49.85 1.43L52.30 1.17L53.95 0.74L54.16 1.08L54.16 17.11L55.37 17.23L55.37 17.71L50.09 17.71L50.09 17.23L51.29 17.11L51.29 1.91Z"></path></svg>