<?xml version="1.0" standalone="no"?>
<svg xmlns="http://www.w3.org/2000/svg" viewBox="0 0 66.8203125 23.5078125" width="66.8203125" height="23.5078125"><path fill="#ffffff" fill-rule="nonzero" d="M5.52 1.22L5.52 1.22Q4.68 1.22 4.04 1.42Q3.40 1.62 2.96 1.98Q2.53 2.34 2.31 2.85Q2.10 3.36 2.10 3.97L2.10 3.97Q2.10 4.41 2.21 4.83Q2.33 5.25 2.72 5.69Q3.11 6.13 3.84 6.60Q4.57 7.07 5.81 7.61L5.81 7.61Q7.24 8.26 8.23 8.84Q9.22 9.41 9.84 10.05Q10.46 10.70 10.74 11.50Q11.02 12.30 11.02 13.42L11.02 13.42Q11.02 14.26 10.68 15.11Q10.34 15.95 9.65 16.62Q8.96 17.29 7.93 17.70Q6.89 18.12 5.50 18.12L5.50 18.12Q3.95 18.12 2.89 17.83Q1.84 17.54 1.20 17.09Q0.56 16.63 0.28 16.05Q0 15.47 0 14.88L0 14.88Q0 14.50 0.12 14.16Q0.23 13.83 0.46 13.58Q0.69 13.32 1.03 13.18Q1.36 13.03 1.78 13.03L1.78 13.03Q2.17 13.03 2.48 13.17Q2.80 13.30 3.02 13.53Q3.23 13.76 3.36 14.07Q3.48 14.38 3.48 14.74L3.48 14.74Q3.48 15.57 3 16.00Q2.52 16.42 1.76 16.42L1.76 16.42L1.76 16.46Q1.84 16.56 2.08 16.72Q2.32 16.89 2.75 17.05Q3.18 17.21 3.80 17.34Q4.43 17.46 5.29 17.46L5.29 17.46Q5.99 17.46 6.69 17.27Q7.38 17.09 7.93 16.73Q8.47 16.38 8.81 15.88Q9.15 15.38 9.15 14.74L9.15 14.74Q9.15 14.20 8.95 13.73Q8.75 13.27 8.20 12.78Q7.65 12.29 6.67 11.74Q5.70 11.18 4.13 10.48L4.13 10.48Q2.96 9.98 2.22 9.39Q1.48 8.80 1.05 8.14Q0.62 7.48 0.46 6.76Q0.29 6.04 0.29 5.27L0.29 5.27Q0.29 4.31 0.64 3.46Q1.00 2.60 1.66 1.96Q2.33 1.32 3.31 0.95Q4.29 0.57 5.54 0.57L5.54 0.57Q6.75 0.57 7.65 0.86Q8.54 1.14 9.13 1.60Q9.71 2.06 10.01 2.68Q10.30 3.29 10.30 3.96L10.30 3.96Q10.30 4.31 10.18 4.63Q10.07 4.96 9.84 5.20Q9.62 5.44 9.29 5.58Q8.96 5.73 8.54 5.73L8.54 5.73Q8.16 5.73 7.84 5.60Q7.52 5.47 7.29 5.25Q7.07 5.03 6.94 4.72Q6.82 4.42 6.82 4.05L6.82 4.05Q6.82 3.64 6.96 3.32Q7.10 3 7.34 2.78Q7.58 2.57 7.91 2.46Q8.24 2.34 8.61 2.34L8.61 2.34L8.61 2.30Q8.54 2.21 8.33 2.03Q8.12 1.85 7.75 1.67Q7.37 1.49 6.82 1.35Q6.27 1.22 5.52 1.22ZM13.91 6.88L12.47 6.88L12.47 6.40L14.92 6.14L16.57 5.71L16.78 6.05L16.78 17.11L17.99 17.23L17.99 17.71L12.70 17.71L12.70 17.23L13.91 17.11L13.91 6.88ZM13.75 1.55L13.75 1.55Q13.75 1.22 13.87 0.94Q13.99 0.66 14.20 0.45Q14.41 0.23 14.70 0.12Q14.98 0 15.29 0L15.29 0Q15.61 0 15.89 0.12Q16.17 0.25 16.39 0.46Q16.61 0.67 16.73 0.95Q16.85 1.23 16.85 1.55L16.85 1.55Q16.85 1.86 16.73 2.14Q16.61 2.43 16.39 2.64Q16.18 2.86 15.90 2.98Q15.62 3.11 15.29 3.11L15.29 3.11Q14.96 3.11 14.68 2.98Q14.40 2.86 14.19 2.65Q13.98 2.44 13.86 2.16Q13.75 1.88 13.75 1.55ZM19.44 20.71L19.44 20.71Q19.44 20.06 19.74 19.56Q20.04 19.05 20.48 18.79Q20.93 18.53 21.33 18.39Q21.74 18.26 22.05 18.26L22.05 18.26L22.05 18.23Q19.88 17.58 19.88 15.88L19.88 15.88Q19.88 14.86 20.61 14.12Q21.34 13.38 22.18 13.14L22.18 13.14L22.18 13.11Q21.12 12.62 20.57 11.71Q20.02 10.80 20.02 9.68L20.02 9.68Q20.02 7.93 21.42 6.76Q22.82 5.59 24.87 5.59L24.87 5.59Q26.81 5.59 28.10 6.61L28.10 6.61Q29.05 4.82 30.39 4.82L30.39 4.82Q31.07 4.82 31.45 5.20Q31.83 5.59 31.83 6.19L31.83 6.19Q31.83 6.71 31.52 7.07Q31.21 7.43 30.73 7.43L30.73 7.43Q30.19 7.43 29.85 7.13Q29.52 6.83 29.52 6.30L29.52 6.30Q29.52 5.94 29.65 5.73L29.65 5.73L29.65 5.68Q29.34 5.74 29.04 6.11Q28.75 6.48 28.54 7.01L28.54 7.01Q29.60 8.14 29.60 9.66L29.60 9.66Q29.60 11.41 28.25 12.53Q26.91 13.64 24.84 13.64L24.84 13.64Q23.70 13.64 22.78 13.35L22.78 13.35Q22.08 13.59 21.68 13.96Q21.28 14.33 21.28 14.73L21.28 14.73Q21.28 15.81 25.17 15.81L25.17 15.81Q26.78 15.81 27.80 15.98Q28.82 16.15 29.47 16.56Q30.13 16.98 30.39 17.65Q30.66 18.32 30.66 19.36L30.66 19.36Q30.66 19.92 30.47 20.48Q30.29 21.05 29.87 21.60Q29.44 22.15 28.80 22.57Q28.17 22.99 27.19 23.25Q26.21 23.51 25.01 23.51L25.01 23.51Q24.28 23.51 23.60 23.45Q22.91 23.39 22.13 23.20Q21.34 23.02 20.77 22.72Q20.20 22.43 19.82 21.91Q19.44 21.39 19.44 20.71ZM21.53 20.34L21.53 20.34Q21.53 21.07 21.87 21.59Q22.22 22.11 22.81 22.38Q23.40 22.65 24.05 22.78Q24.69 22.90 25.44 22.90L25.44 22.90Q27.25 22.90 28.30 22.20Q29.36 21.49 29.36 20.37L29.36 20.37Q29.36 19.64 28.95 19.23Q28.54 18.82 27.77 18.69Q27 18.55 26.21 18.53L26.21 18.53L24.34 18.49Q23.25 18.47 22.54 18.35L22.54 18.35L22.52 18.36Q21.53 19.08 21.53 20.34ZM22.90 9.61L22.90 9.61Q22.90 11.31 23.38 12.21Q23.87 13.11 24.82 13.11L24.82 13.11Q26.72 13.11 26.72 9.68L26.72 9.68Q26.72 7.83 26.29 6.97Q25.85 6.12 24.87 6.12L24.87 6.12Q23.92 6.12 23.41 7.03Q22.90 7.95 22.90 9.61ZM32.48 6.88L32.46 6.40L34.91 6.14L36.56 5.71L36.77 6.05L36.73 7.63L36.77 7.63Q38.17 5.59 40.38 5.59L40.38 5.59Q40.80 5.59 41.19 5.66Q41.58 5.73 42.05 5.98Q42.52 6.22 42.86 6.62Q43.20 7.02 43.43 7.76Q43.66 8.50 43.66 9.48L43.66 9.48L43.66 17.11L44.86 17.23L44.86 17.71L39.59 17.71L39.59 17.23L40.78 17.11L40.78 9.14Q40.78 6.64 39.18 6.64L39.18 6.64Q38.12 6.64 37.45 7.61Q36.77 8.57 36.77 10.13L36.77 10.13L36.77 17.11L37.98 17.23L37.98 17.71L32.70 17.71L32.70 17.23L33.90 17.11L33.90 6.86L32.48 6.88ZM52.91 17.71L46.30 17.71L46.30 17.18L48.11 17.06L48.11 1.63L46.30 1.51L46.30 0.98L52.91 0.98L52.91 1.51L51.11 1.63L51.11 17.06L52.91 17.18L52.91 17.71ZM54.45 6.88L54.42 6.40L56.87 6.14L58.52 5.71L58.73 6.05L58.69 7.63L58.73 7.63Q60.13 5.59 62.34 5.59L62.34 5.59Q62.77 5.59 63.15 5.66Q63.54 5.73 64.01 5.98Q64.48 6.22 64.82 6.62Q65.16 7.02 65.39 7.76Q65.63 8.50 65.63 9.48L65.63 9.48L65.63 17.11L66.82 17.23L66.82 17.71L61.55 17.71L61.55 17.23L62.74 17.11L62.74 9.14Q62.74 6.64 61.14 6.64L61.14 6.64Q60.08 6.64 59.41 7.61Q58.73 8.57 58.73 10.13L58.73 10.13L58.73 17.11L59.94 17.23L59.94 17.71L54.66 17.71L54.66 17.23L55.86 17.11L55.86 6.86L54.45 6.88Z"></path></svg>