<?xml version="1.0" standalone="no"?>
<svg xmlns="http://www.w3.org/2000/svg" viewBox="0 0 217.35999999999999 52" width="217.35999999999999" height="52"><rect fill="none" stroke="#ffffff" stroke-width="3" width="214.35999999999999" height="49" x="1.5" y="1.5"></rect><g fill="#ffffff" color="#ffffff" transform="translate(12, 11.999999999999998) scale(0.2800001)"><svg width="100.0" height="100.0" x="0.0" y="0.0" viewBox="0 0 100 100"><path fill="currentColor" d="M56.532,61.533c-0.046-0.031-0.348-0.878-0.348-0.878l-1.39-2.777l-8.94-14.86V41.81l13.168,17.216  l0.188,0.737l0.143,0.05c0,0,0.089,0.009,0,0C61.217,60.285,62.25,62,62.25,62l0.322,0.711l1.148-4.652  c0,0,12.804-12.686,13.922-21.384l-3.169,0.846c0,0-3.443-3.503-3.807-5.799c-0.362-2.296-1.147-10.632-4.652-12.685  c0,0-1.69-0.423-2.958,0.303c0,0-4.712-5.498-11.658-5.377l-0.725-2.96c0,0-21.626,1.692-21.444,23.317c0,0-0.478,8.635,4.536,13.83  L33.583,47.7c0,0,1.625,3.169-0.791,6.432c0,0-2.174-0.06-2.537,2.235l-2.899,5.195c0,0-0.967-0.122-1.752,1.268  c-0.785,1.391-6.584,12.868-6.584,12.868s15.887-7.793,22.532-6.584c0,0,12.261-0.594,23.982,17.554c0,0,0.903-13.689-2.236-15.32   M56.352,49.542l5.557-7.49h0.423l2.357,0.302L57.8,50.87L56.352,49.542z M60.58,52.865l-1.631-1.21l7.248-9.121h2.236L60.58,52.865  z M73.083,42.051c0,0-8.576,12.988-9.725,12.928c-1.148-0.062-1.631-1.209-1.631-1.209s9.241-10.573,8.698-11.236L73.083,42.051z   M68.287,34.378l1.15,3.153l-9.447-2.042l-1.041-3.637L68.287,34.378z M58.465,41.387l2.115,0.604l-5.437,6.846l-1.391-1.59  L58.465,41.387z"></path></svg></g><path fill="#ffffff" fill-rule="nonzero" d="M18.12 17.16Q16.39 17.16 15.43 16.63Q14.47 16.10 14.08 14.99Q13.68 13.87 13.68 12.00L13.68 12.00L13.68 2.76L7.68 16.08L7.20 16.08L0.96 2.52L0.96 16.08L0 16.08L0 0.24L2.28 0.24L8.04 12.72L13.68 0.24L15.84 0.24L15.84 12.00Q15.84 14.23 16.40 15.46Q16.97 16.68 18.12 16.68L18.12 16.68L18.12 17.16ZM24.17 16.32Q22.54 16.32 21.41 15.54Q20.28 14.76 19.70 13.43Q19.13 12.10 19.13 10.44L19.13 10.44Q19.13 8.81 19.70 7.46Q20.28 6.12 21.37 5.34Q22.46 4.56 23.93 4.56L23.93 4.56Q26.35 4.56 27.54 5.92Q28.73 7.27 28.73 9.84L28.73 9.84L28.68 10.80L21.41 10.80Q21.41 12.82 22.27 14.09Q23.14 15.36 24.65 15.36L24.65 15.36Q25.78 15.36 26.56 14.88Q27.34 14.40 28.01 13.44L28.01 13.44L28.49 13.80Q27.70 15.12 26.64 15.72Q25.58 16.32 24.17 16.32L24.17 16.32ZM21.41 9.84L26.45 9.84Q26.45 7.73 25.82 6.62Q25.20 5.52 23.93 5.52L23.93 5.52Q23.21 5.52 22.63 6.08Q22.06 6.65 21.73 7.63Q21.41 8.62 21.41 9.84L21.41 9.84ZM35.21 16.32Q33.12 16.32 32.00 14.66Q30.89 13.01 30.89 10.44L30.89 10.44Q30.89 7.87 32.05 6.22Q33.22 4.56 35.45 4.56L35.45 4.56Q36.36 4.56 37.06 4.75Q37.75 4.94 38.45 5.28L38.45 5.28L38.45 3.12Q38.45 1.90 38.11 1.31Q37.78 0.72 36.77 0.72L36.77 0.72L36.29 0.72L36.29 0.24L38.45 0.24Q39.34 0.24 39.78 0.47Q40.22 0.70 40.42 1.30Q40.61 1.90 40.61 3.12L40.61 3.12L40.61 16.08L39.41 16.08L38.57 15.00L38.45 15.00Q37.92 15.60 37.21 15.96Q36.50 16.32 35.21 16.32L35.21 16.32ZM35.93 15.36Q36.91 15.36 37.42 15.00Q37.92 14.64 38.45 13.92L38.45 13.92L38.45 6.24Q37.73 5.90 37.20 5.71Q36.67 5.52 36.17 5.52L36.17 5.52Q34.63 5.52 33.90 6.86Q33.17 8.21 33.17 10.44L33.17 10.44Q33.17 12.65 33.86 14.00Q34.56 15.36 35.93 15.36L35.93 15.36ZM45.34 3.36Q44.78 3.36 44.39 2.90Q43.99 2.45 43.99 1.82L43.99 1.82Q43.99 1.32 44.29 1.03Q44.59 0.74 45.10 0.74L45.10 0.74Q45.65 0.74 46.04 1.20Q46.44 1.66 46.44 2.28L46.44 2.28Q46.44 2.78 46.14 3.07Q45.84 3.36 45.34 3.36L45.34 3.36ZM44.42 16.08L44.42 7.68Q44.42 6.46 44.09 5.87Q43.75 5.28 42.74 5.28L42.74 5.28L42.26 5.28L42.26 4.80L44.42 4.80Q45.31 4.80 45.76 5.03Q46.20 5.26 46.39 5.86Q46.58 6.46 46.58 7.68L46.58 7.68L46.58 16.08L44.42 16.08ZM54.36 16.32Q52.73 16.32 51.60 15.54Q50.47 14.76 49.90 13.43Q49.32 12.10 49.32 10.44L49.32 10.44Q49.32 8.81 49.90 7.46Q50.47 6.12 51.56 5.34Q52.66 4.56 54.12 4.56L54.12 4.56Q56.54 4.56 57.73 5.92Q58.92 7.27 58.92 9.84L58.92 9.84L58.87 10.80L51.60 10.80Q51.60 12.82 52.46 14.09Q53.33 15.36 54.84 15.36L54.84 15.36Q55.97 15.36 56.75 14.88Q57.53 14.40 58.20 13.44L58.20 13.44L58.68 13.80Q57.89 15.12 56.83 15.72Q55.78 16.32 54.36 16.32L54.36 16.32ZM51.60 9.84L56.64 9.84Q56.64 7.73 56.02 6.62Q55.39 5.52 54.12 5.52L54.12 5.52Q53.40 5.52 52.82 6.08Q52.25 6.65 51.92 7.63Q51.60 8.62 51.60 9.84L51.60 9.84ZM65.93 16.32L62.21 7.56Q61.63 6.22 61.10 5.68Q60.58 5.14 59.71 5.09L59.71 5.09L59.71 4.61Q59.83 4.61 60.06 4.58Q60.29 4.56 60.53 4.56L60.53 4.56Q61.80 4.56 62.83 5.20Q63.86 5.83 64.61 7.56L64.61 7.56L66.77 12.72L70.13 4.80L71.33 4.80L66.41 16.32L65.93 16.32ZM76.18 16.32Q75.41 16.32 74.62 16.00Q73.82 15.67 73.26 14.93Q72.70 14.18 72.70 12.96L72.70 12.96Q72.70 11.14 74.39 10.37Q76.08 9.60 78.82 9.60L78.82 9.60L79.54 9.60Q79.54 7.25 78.89 6.38Q78.24 5.52 77.02 5.52L77.02 5.52Q75.94 5.52 75.29 5.98Q74.64 6.43 74.38 7.56L74.38 7.56L73.30 7.56Q73.30 6.74 73.39 6.28Q73.49 5.81 73.90 5.40L73.90 5.40Q74.33 4.97 75.32 4.76Q76.32 4.56 77.50 4.56L77.50 4.56Q79.44 4.56 80.57 5.60Q81.70 6.65 81.70 9.60L81.70 9.60L81.70 16.08L80.50 16.08L79.66 15.00L79.54 15.00Q79.10 15.55 78.26 15.94Q77.42 16.32 76.18 16.32L76.18 16.32ZM77.26 15.24Q78.05 15.24 78.58 14.86Q79.10 14.47 79.54 13.80L79.54 13.80L79.54 10.56L78.82 10.56Q77.04 10.56 76.01 11.22Q74.98 11.88 74.98 12.96L74.98 12.96Q74.98 14.06 75.64 14.65Q76.30 15.24 77.26 15.24L77.26 15.24ZM85.13 16.08L85.13 3.12Q85.13 1.90 84.79 1.31Q84.46 0.72 83.45 0.72L83.45 0.72L82.97 0.72L82.97 0.24L85.13 0.24Q86.02 0.24 86.46 0.47Q86.90 0.70 87.10 1.30Q87.29 1.90 87.29 3.12L87.29 3.12L87.29 16.08L85.13 16.08ZM101.64 16.32L96.98 3.05Q96.50 1.66 95.96 1.14Q95.42 0.62 94.34 0.53L94.34 0.53L94.34 0.05Q94.46 0.05 94.69 0.02Q94.92 0 95.16 0L95.16 0Q96.48 0 97.55 0.60Q98.62 1.20 99.26 3.05L99.26 3.05L102.48 12.31L105.05 4.70L104.47 3.05Q103.99 1.66 103.45 1.14Q102.91 0.62 101.83 0.53L101.83 0.53L101.83 0.05Q101.95 0.05 102.18 0.02Q102.41 0 102.65 0L102.65 0Q103.97 0 105.04 0.60Q106.10 1.20 106.75 3.05L106.75 3.05L109.97 12.31L114.07 0.24L115.10 0.24L109.61 16.32L109.13 16.32L105.58 6.22L102.12 16.32L101.64 16.32ZM120.82 16.32Q119.18 16.32 117.98 15.54Q116.78 14.76 116.16 13.42Q115.54 12.07 115.54 10.44L115.54 10.44Q115.54 8.81 116.16 7.46Q116.78 6.12 117.98 5.34Q119.18 4.56 120.82 4.56L120.82 4.56Q122.45 4.56 123.65 5.34Q124.85 6.12 125.47 7.46Q126.10 8.81 126.10 10.44L126.10 10.44Q126.10 12.07 125.47 13.42Q124.85 14.76 123.65 15.54Q122.45 16.32 120.82 16.32L120.82 16.32ZM120.82 15.36Q121.70 15.36 122.39 14.71Q123.07 14.06 123.44 12.94Q123.82 11.81 123.82 10.44L123.82 10.44Q123.82 9.07 123.44 7.94Q123.07 6.82 122.39 6.17Q121.70 5.52 120.82 5.52L120.82 5.52Q119.93 5.52 119.24 6.17Q118.56 6.82 118.19 7.94Q117.82 9.07 117.82 10.44L117.82 10.44Q117.82 11.81 118.19 12.94Q118.56 14.06 119.24 14.71Q119.93 15.36 120.82 15.36L120.82 15.36ZM129.10 16.08L129.10 7.68Q129.10 6.46 128.76 5.87Q128.42 5.28 127.42 5.28L127.42 5.28L127.18 5.28L127.18 4.80L129.10 4.80Q130.01 4.80 130.48 5.05Q130.94 5.30 131.14 5.88L131.14 5.88L131.26 5.88Q131.69 5.33 132.42 4.94Q133.15 4.56 134.14 4.56L134.14 4.56Q135.10 4.56 135.58 4.92L135.58 4.92Q135.98 5.23 136.42 6.00L136.42 6.00L135.46 6.72Q135.19 6.36 134.69 6.18Q134.18 6.00 133.54 6.00L133.54 6.00Q132.82 6.00 132.22 6.32Q131.62 6.65 131.26 7.20L131.26 7.20L131.26 16.08L129.10 16.08ZM138.53 16.08L138.53 3.12Q138.53 1.90 138.19 1.31Q137.86 0.72 136.85 0.72L136.85 0.72L136.37 0.72L136.37 0.24L138.53 0.24Q139.42 0.24 139.86 0.47Q140.30 0.70 140.50 1.30Q140.69 1.90 140.69 3.12L140.69 3.12L140.69 16.08L138.53 16.08ZM147.96 16.32Q145.87 16.32 144.76 14.66Q143.64 13.01 143.64 10.44L143.64 10.44Q143.64 7.87 144.80 6.22Q145.97 4.56 148.20 4.56L148.20 4.56Q149.11 4.56 149.81 4.75Q150.50 4.94 151.20 5.28L151.20 5.28L151.20 3.12Q151.20 1.90 150.86 1.31Q150.53 0.72 149.52 0.72L149.52 0.72L149.04 0.72L149.04 0.24L151.20 0.24Q152.09 0.24 152.53 0.47Q152.98 0.70 153.17 1.30Q153.36 1.90 153.36 3.12L153.36 3.12L153.36 16.08L152.16 16.08L151.32 15.00L151.20 15.00Q150.67 15.60 149.96 15.96Q149.26 16.32 147.96 16.32L147.96 16.32ZM148.68 15.36Q149.66 15.36 150.17 15.00Q150.67 14.64 151.20 13.92L151.20 13.92L151.20 6.24Q150.48 5.90 149.95 5.71Q149.42 5.52 148.92 5.52L148.92 5.52Q147.38 5.52 146.65 6.86Q145.92 8.21 145.92 10.44L145.92 10.44Q145.92 12.65 146.62 14.00Q147.31 15.36 148.68 15.36L148.68 15.36Z" transform="translate(52 17.419999999999998)"></path></svg>